HIERARCHY
ROOT Hips
{
	OFFSET 0.000000 0.000000 0.000000
	CHANNELS 6 Xposition Yposition Zposition Xrotation Yrotation Zrotation
	JOINT LeftUpLeg_virtual
	{
		OFFSET 0.000000 0.000000 0.000000
		CHANNELS 3 Xrotation Yrotation Zrotation
		JOINT LeftUpLeg
		{
			OFFSET 11.394100 -6.187798 -0.413800
			CHANNELS 3 Xrotation Yrotation Zrotation
			JOINT LeftLeg
			{
				OFFSET 0.430247 -32.302673 3.732800
				CHANNELS 3 Xrotation Yrotation Zrotation
				JOINT LeftFoot
				{
					OFFSET -0.430247 -48.264931 -6.423300
					CHANNELS 3 Xrotation Yrotation Zrotation
					JOINT LeftToeBase
					{
						OFFSET 4.230900 -16.068199 23.438400
						CHANNELS 3 Xrotation Yrotation Zrotation
						JOINT LeftToe_End
						{
							OFFSET 4.510700 0.695400 19.974600
							CHANNELS 3 Xrotation Yrotation Zrotation
							End Site
							{
								OFFSET 0 0 0
							}
						}
					}
				}
			}
		}
	}
	JOINT RightUpLeg_virtual
	{
		OFFSET 0.000000 0.000000 0.000000
		CHANNELS 3 Xrotation Yrotation Zrotation
		JOINT RightUpLeg
		{
			OFFSET -11.333700 -6.187798 -0.413800
			CHANNELS 3 Xrotation Yrotation Zrotation
			JOINT RightLeg
			{
				OFFSET -0.430392 -32.302628 3.733000
				CHANNELS 3 Xrotation Yrotation Zrotation
				JOINT RightFoot
				{
					OFFSET 0.430392 -48.264973 -6.423500
					CHANNELS 3 Xrotation Yrotation Zrotation
					JOINT RightToeBase
					{
						OFFSET -4.230900 -16.068199 23.438400
						CHANNELS 3 Xrotation Yrotation Zrotation
						JOINT RightToe_End
						{
							OFFSET -4.510700 0.695400 19.974600
							CHANNELS 3 Xrotation Yrotation Zrotation
							End Site
							{
								OFFSET 0 0 0
							}
						}
					}
				}
			}
		}
	}
	JOINT Spine_virtual
	{
		OFFSET 0.000000 0.000000 0.000000
		CHANNELS 3 Xrotation Yrotation Zrotation
		JOINT Spine
		{
			OFFSET -0.002400 12.777504 0.315300
			CHANNELS 3 Xrotation Yrotation Zrotation
			JOINT Spine1
			{
				OFFSET -0.002067 5.816869 0.032633
				CHANNELS 3 Xrotation Yrotation Zrotation
				JOINT Spine1_split
				{
					OFFSET -0.002067 5.816869 0.032633
					CHANNELS 3 Xrotation Yrotation Zrotation
					JOINT Spine2
					{
						OFFSET -0.002067 5.816869 0.032633
						CHANNELS 3 Xrotation Yrotation Zrotation
						JOINT Neck_virtual
						{
							OFFSET 0.000000 0.000000 0.000000
							CHANNELS 3 Xrotation Yrotation Zrotation
							JOINT Neck
							{
								OFFSET -0.003700 21.199493 -0.826900
								CHANNELS 3 Xrotation Yrotation Zrotation
								JOINT Head
								{
									OFFSET 0.000000 20.442200 4.834800
									CHANNELS 3 Xrotation Yrotation Zrotation
									JOINT HeadTop_End
									{
										OFFSET 0.000000 34.668396 4.968400
										CHANNELS 3 Xrotation Yrotation Zrotation
										End Site
										{
											OFFSET 0 0 0
										}
									}
								}
							}
						}
						JOINT LeftShoulder_virtual
						{
							OFFSET 0.000000 0.000000 0.000000
							CHANNELS 3 Xrotation Yrotation Zrotation
							JOINT LeftShoulder
							{
								OFFSET 3.288150 8.794197 -1.372250
								CHANNELS 3 Xrotation Yrotation Zrotation
								JOINT LeftShoulder_split
								{
									OFFSET 3.288150 8.794197 -1.372250
									CHANNELS 3 Xrotation Yrotation Zrotation
									JOINT LeftArm
									{
										OFFSET 11.953299 -2.279007 -0.146200
										CHANNELS 3 Xrotation Yrotation Zrotation
										JOINT LeftForeArm
										{
											OFFSET 18.448900 0.000000 0.000000
											CHANNELS 3 Xrotation Yrotation Zrotation
											JOINT LeftHand
											{
												OFFSET 29.527798 0.000000 0.000000
												CHANNELS 3 Xrotation Yrotation Zrotation
												End Site
												{
													OFFSET 0 0 0
												}
											}
										}
									}
								}
							}
						}
						JOINT RightShoulder_virtual
						{
							OFFSET 0.000000 0.000000 0.000000
							CHANNELS 3 Xrotation Yrotation Zrotation
							JOINT RightShoulder
							{
								OFFSET -3.249400 8.794197 -1.372250
								CHANNELS 3 Xrotation Yrotation Zrotation
								JOINT RightShoulder_split
								{
									OFFSET -3.249400 8.794197 -1.372250
									CHANNELS 3 Xrotation Yrotation Zrotation
									JOINT RightArm
									{
										OFFSET -11.953299 -2.279007 -0.146200
										CHANNELS 3 Xrotation Yrotation Zrotation
										JOINT RightForeArm
										{
											OFFSET -18.448900 0.000000 0.000000
											CHANNELS 3 Xrotation Yrotation Zrotation
											JOINT RightHand
											{
												OFFSET -29.527802 0.000000 0.000000
												CHANNELS 3 Xrotation Yrotation Zrotation
												End Site
												{
													OFFSET 0 0 0
												}
											}
										}
									}
								}
							}
						}
					}
				}
			}
		}
	}
}
MOTION
Frames: 5
Frame Time: 0.03333333
0.547317 125.984947 0.874231 0.000000 0.000000 0.000000 3.742558 -37.301849 3.249142 -86.846634 -23.068428 27.373943 65.509751 1.337372 7.685635 19.640281 -1.240620 2.629362 0.031753 -0.007714 0.000016 0.000000 0.000000 0.000000 3.742558 -37.301849 3.249142 -148.384302 -42.576271 -12.631951 122.542172 11.984347 -14.066084 36.496204 6.069798 33.795288 0.004140 0.000167 -0.000325 0.000000 0.000000 0.000000 3.742558 -37.301849 3.249142 31.627413 -4.672822 -10.219599 14.129379 0.964741 -3.082678 0.000000 0.000000 0.000000 0.000000 0.000000 0.000000 14.083558 0.916929 -3.297930 -8.677487 21.443478 -12.816593 -25.381084 13.620604 5.249199 0.000000 0.000000 0.000000 14.083558 0.916929 -3.297930 11.474077 -16.374147 4.408435 0.000000 0.000000 0.000000 -62.668789 -4.844739 -3.758215 45.767636 -24.019392 29.511116 0.000000 0.000000 0.000000 14.083558 0.916929 -3.297930 18.189212 24.092148 -9.603801 0.000000 0.000000 0.000000 -33.453146 6.374207 2.980963 -41.939202 39.311133 29.275888 0.000000 0.000000 0.000000 
0.549918 125.978325 0.846666 0.000000 0.000000 0.000000 3.795230 -37.487848 3.356081 -86.819901 -23.019771 27.403704 65.470676 1.265657 7.643929 19.588588 -1.045830 2.479666 0.022377 -0.007755 0.000042 0.000000 0.000000 0.000000 3.795230 -37.487848 3.356081 -147.827915 -42.623642 -12.621560 122.328879 12.161370 -14.080934 36.074621 5.924196 33.608595 0.005012 0.000204 -0.000313 0.000000 0.000000 0.000000 3.795230 -37.487848 3.356081 31.625647 -4.705290 -10.228487 14.121963 0.959993 -3.082253 0.000000 0.000000 0.000000 0.000000 0.000000 0.000000 14.068812 0.912807 -3.297118 -8.610275 21.493200 -12.821331 -25.195736 13.750093 5.199517 0.000000 0.000000 0.000000 14.068812 0.912807 -3.297118 11.267117 -16.494265 3.552182 0.000000 0.000000 0.000000 -61.836400 -4.277145 -3.867881 45.655310 -23.778493 29.256671 0.000000 0.000000 0.000000 14.068812 0.912807 -3.297118 17.871444 24.380039 -8.840627 0.000000 0.000000 0.000000 -32.509655 6.730321 2.966677 -41.608085 38.845150 28.745701 0.000000 0.000000 0.000000 
0.548074 125.971489 0.820667 0.000000 0.000000 0.000000 3.852120 -37.620969 3.464081 -86.737214 -22.944299 27.436081 65.364364 1.238755 7.626839 19.501764 -0.951406 2.317150 0.013805 -0.007796 -0.000004 0.000000 0.000000 0.000000 3.852120 -37.620969 3.464081 -147.203581 -42.661041 -12.570161 122.099002 12.311008 -14.097796 35.640398 5.776701 33.465150 0.005050 0.000167 -0.000342 0.000000 0.000000 0.000000 3.852120 -37.620969 3.464081 31.596476 -4.733122 -10.225378 14.084174 0.946259 -3.078781 0.000000 0.000000 0.000000 0.000000 0.000000 0.000000 14.024742 0.902260 -3.293464 -8.559983 21.556439 -12.797785 -24.976439 13.886575 5.176315 0.000000 0.000000 0.000000 14.024742 0.902260 -3.293464 11.087260 -16.530115 2.819710 0.000000 0.000000 0.000000 -61.258853 -3.422798 -3.756269 45.583538 -23.623784 29.096165 0.000000 0.000000 0.000000 14.024742 0.902260 -3.293464 17.522811 24.569662 -8.065058 0.000000 0.000000 0.000000 -31.766585 6.787543 2.888681 -41.306266 38.411765 28.260084 0.000000 0.000000 0.000000 
0.537393 125.963753 0.798458 0.000000 0.000000 0.000000 3.912290 -37.693690 3.571998 -86.615985 -22.856332 27.450086 65.207775 1.328217 7.672824 19.383496 -1.030290 2.268765 -0.002651 -0.007793 0.000004 0.000000 0.000000 0.000000 3.912290 -37.693690 3.571998 -146.550888 -42.668328 -12.510052 121.873114 12.492223 -14.116260 35.171103 5.643331 33.406203 0.004474 0.000177 -0.000396 0.000000 0.000000 0.000000 3.912290 -37.693690 3.571998 31.550092 -4.757321 -10.212530 14.021893 0.921088 -3.071933 0.000000 0.000000 0.000000 0.000000 0.000000 0.000000 13.962290 0.883279 -3.285271 -8.535234 21.652830 -12.746674 -24.714386 14.082417 5.207962 0.000000 0.000000 0.000000 13.962290 0.883279 -3.285271 10.892966 -16.486465 2.082176 0.000000 0.000000 0.000000 -60.703504 -2.446162 -3.677434 45.522787 -23.492929 28.962345 0.000000 0.000000 0.000000 13.962290 0.883279 -3.285271 17.154404 24.738902 -7.233017 0.000000 0.000000 0.000000 -30.927445 6.665489 2.774252 -41.041374 38.023530 27.831313 0.000000 0.000000 0.000000 
0.515582 125.960442 0.772713 0.000000 0.000000 0.000000 3.974914 -37.762033 3.686150 -86.457573 -22.711699 27.452602 65.018053 1.521601 7.774425 19.171836 -1.062090 2.283977 -0.087884 -0.007719 0.000010 0.000000 0.000000 0.000000 3.974914 -37.762033 3.686150 -145.882964 -42.675770 -12.435474 121.638484 12.642177 -14.135859 34.704198 5.506036 33.328359 0.003623 0.000195 -0.000377 0.000000 0.000000 0.000000 3.974914 -37.762033 3.686150 31.474755 -4.776313 -10.199368 13.939576 0.894836 -3.064074 0.000000 0.000000 0.000000 0.000000 0.000000 0.000000 13.883521 0.860890 -3.274870 -8.539691 21.727078 -12.632805 -24.434548 14.133020 5.300546 0.000000 0.000000 0.000000 13.883521 0.860890 -3.274870 10.735038 -16.337288 1.386319 0.000000 0.000000 0.000000 -60.173352 -1.363564 -3.614975 45.514810 -23.476682 28.951942 0.000000 0.000000 0.000000 13.883521 0.860890 -3.274870 16.731843 24.898374 -6.280357 0.000000 0.000000 0.000000 -30.228437 6.296621 2.609970 -40.812163 37.681348 27.458105 0.000000 0.000000 0.000000 
